<?xml version="1.0" encoding="UTF-8" standalone="no" ?>
<!DOCTYPE svg PUBLIC "-//W3C//DTD SVG 1.1//EN" "http://www.w3.org/Graphics/SVG/1.1/DTD/svg11.dtd">
<svg xmlns="http://www.w3.org/2000/svg" xmlns:xlink="http://www.w3.org/1999/xlink" version="1.1" width="2080" height="2080" viewBox="0 0 2080 2080" xml:space="preserve">
<desc>Created with Fabric.js 5.2.4</desc>
<defs>
</defs>
<rect x="0" y="0" width="100%" height="100%" fill="transparent"></rect>
<g transform="matrix(1 0 0 1 1040 1040)" id="a245a015-1465-4f57-acb7-119c458e1832"  >
<rect style="stroke: none; stroke-width: 1; stroke-dasharray: none; stroke-linecap: butt; stroke-dashoffset: 0; stroke-linejoin: miter; stroke-miterlimit: 4; fill: rgb(255,255,255); fill-rule: nonzero; opacity: 1; visibility: hidden;" vector-effect="non-scaling-stroke"  x="-1040" y="-1040" rx="0" ry="0" width="2080" height="2080" />
</g>
<g transform="matrix(0 0 0 0 0 0)" id="aef6f5a8-741f-4c46-8a85-964b2e0b78ec"  >
</g>
<g transform="matrix(3.75 0 0 3.75 1110.36 1388.63)"  >
<rect style="stroke: none; stroke-width: 1; stroke-dasharray: none; stroke-linecap: butt; stroke-dashoffset: 0; stroke-linejoin: miter; stroke-miterlimit: 4; fill: rgb(255,255,255); fill-opacity: 0; fill-rule: nonzero; opacity: 1;" vector-effect="non-scaling-stroke"  x="-50" y="-50" rx="0" ry="0" width="100" height="100" />
</g>
<g transform="matrix(1.93 0 0 1.93 2082.2 2082.2)"  >
<rect style="stroke: none; stroke-width: 1; stroke-dasharray: none; stroke-linecap: butt; stroke-dashoffset: 0; stroke-linejoin: miter; stroke-miterlimit: 4; fill: rgb(255,255,255); fill-rule: nonzero; opacity: 1; visibility: hidden;" vector-effect="non-scaling-stroke"  x="-540" y="-540" rx="0" ry="0" width="1080" height="1080" />
</g>
<g transform="matrix(27.46 0 0 -28.29 794.71 1126.82)"  >
<path style="stroke: rgb(0,0,0); stroke-width: 0; stroke-dasharray: none; stroke-linecap: butt; stroke-dashoffset: 0; stroke-linejoin: miter; stroke-miterlimit: 4; fill: rgb(161,161,161); fill-rule: nonzero; opacity: 1;" vector-effect="non-scaling-stroke"  transform=" translate(-31.34, -31.5)" d="M 3.03 14 L 10.83 14 C 13.466693756019598 13.999195735319013 15.89535529180738 15.43187619964808 17.17 17.74 L 26.42 34.52 L 31.290000000000003 23.660000000000004 L 25.97 14 L 33.76 14 C 36.396693756019594 13.999195735319015 38.82535529180738 15.431876199648087 40.099999999999994 17.740000000000002 L 50.69 36.94 L 45.28 49 L 32.62 26.07 L 22.34 49 L 3.04 14 Z M 59.44 17.4 C 59.78194021285619 16.654037440367176 59.71904952917373 15.785077945436736 59.27325789788912 15.096127242542332 C 58.8274662666045 14.407176539647928 58.06057549527442 13.993746513195356 57.239999999999995 13.999999999999998 L 48.9 13.999999999999998 L 55.56 26.07 L 59.440000000000005 17.4 Z" stroke-linecap="round" />
</g>
<g transform="matrix(6.37 0 0 6.37 1822.93 1398.76)" id="601a01c8-8fe9-4ac6-98f7-a40e50b72132"  >
<circle style="stroke: rgb(0,0,0); stroke-width: 0; stroke-dasharray: none; stroke-linecap: butt; stroke-dashoffset: 0; stroke-linejoin: miter; stroke-miterlimit: 4; fill: rgb(111,111,111); fill-rule: nonzero; opacity: 1;" vector-effect="non-scaling-stroke"  cx="0" cy="0" r="35" />
</g>
</svg>